<svg xmlns="http://www.w3.org/2000/svg" width="64" height="64"  viewBox="0 0 24 24"><path fill="#FAFAFA" fill-rule="evenodd" d="M6 5.5A1.5 1.5 0 0 1 7.5 4h9A1.5 1.5 0 0 1 18 5.5v13a1.5 1.5 0 0 1-1.5 1.5h-9A1.5 1.5 0 0 1 6 18.5zm2 1a.5.5 0 0 1 .5-.5h7a.5.5 0 0 1 .5.5V11a.5.5 0 0 1-.5.5h-7A.5.5 0 0 1 8 11zM8.5 17a.5.5 0 0 0 0 1h1a.5.5 0 0 0 0-1zm5.5.5a.5.5 0 0 1 .5-.5h1a.5.5 0 0 1 0 1h-1a.5.5 0 0 1-.5-.5m-2.5-.5a.5.5 0 0 0 0 1h1a.5.5 0 0 0 0-1zM8 15.5a.5.5 0 0 1 .5-.5h1a.5.5 0 0 1 0 1h-1a.5.5 0 0 1-.5-.5m6.5-.5a.5.5 0 0 0 0 1h1a.5.5 0 0 0 0-1zm-3.5.5a.5.5 0 0 1 .5-.5h1a.5.5 0 0 1 0 1h-1a.5.5 0 0 1-.5-.5M8.5 13a.5.5 0 0 0 0 1h1a.5.5 0 0 0 0-1zm5.5.5a.5.5 0 0 1 .5-.5h1a.5.5 0 0 1 0 1h-1a.5.5 0 0 1-.5-.5m-2.5-.5a.5.5 0 0 0 0 1h1a.5.5 0 0 0 0-1z" clip-rule="evenodd"/></svg>